0
SECTION
2
HEADER
9
$ACADVER
1
AC1015
9
$INSUNITS
70
6
9
$EXTMIN
10
2605201.531
20
256121.299
30
0.0
9
$EXTMAX
10
2607328.657
20
257201.137
30
0.0
0
ENDSEC
0
SECTION
2
TABLES
0
TABLE
2
LTYPE
70
1
0
LTYPE
2
CONTINUOUS
70
0
3
Solid line
72
65
73
0
40
0.0
0
ENDTAB
0
TABLE
2
LAYER
70
2
0
LAYER
2
0
70
0
62
7
6
CONTINUOUS
0
LAYER
2
Pakhar-A 115.13 Ha Boundary Pillars.csv
70
0
62
7
6
CONTINUOUS
0
ENDTAB
0
TABLE
2
APPID
70
1
0
APPID
2
BHUNEX_RING
70
0
0
ENDTAB
0
ENDSEC
0
SECTION
2
BLOCKS
0
ENDSEC
0
SECTION
2
ENTITIES
0
POINT
5
100
8
Pakhar-A 115.13 Ha Boundary Pillars.csv
10
2605201.531
20
256320.247
30
0.0
0
POINT
5
101
8
Pakhar-A 115.13 Ha Boundary Pillars.csv
10
2605250.660
20
256329.539
30
0.0
0
POINT
5
102
8
Pakhar-A 115.13 Ha Boundary Pillars.csv
10
2605279.989
20
256335.087
30
0.0
0
POINT
5
103
8
Pakhar-A 115.13 Ha Boundary Pillars.csv
10
2605326.528
20
256316.809
30
0.0
0
POINT
5
104
8
Pakhar-A 115.13 Ha Boundary Pillars.csv
10
2605373.068
20
256298.532
30
0.0
0
POINT
5
105
8
Pakhar-A 115.13 Ha Boundary Pillars.csv
10
2605419.608
20
256280.254
30
0.0
0
POINT
5
106
8
Pakhar-A 115.13 Ha Boundary Pillars.csv
10
2605466.147
20
256261.976
30
0.0
0
POINT
5
107
8
Pakhar-A 115.13 Ha Boundary Pillars.csv
10
2605512.687
20
256243.699
30
0.0
0
POINT
5
108
8
Pakhar-A 115.13 Ha Boundary Pillars.csv
10
2605559.226
20
256225.421
30
0.0
0
POINT
5
109
8
Pakhar-A 115.13 Ha Boundary Pillars.csv
10
2605605.766
20
256207.143
30
0.0
0
POINT
5
10A
8
Pakhar-A 115.13 Ha Boundary Pillars.csv
10
2605652.305
20
256188.866
30
0.0
0
POINT
5
10B
8
Pakhar-A 115.13 Ha Boundary Pillars.csv
10
2605698.872
20
256170.658
30
0.0
0
POINT
5
10C
8
Pakhar-A 115.13 Ha Boundary Pillars.csv
10
2605745.799
20
256153.398
30
0.0
0
POINT
5
10D
8
Pakhar-A 115.13 Ha Boundary Pillars.csv
10
2605792.725
20
256136.138
30
0.0
0
POINT
5
10E
8
Pakhar-A 115.13 Ha Boundary Pillars.csv
10
2605833.071
20
256121.299
30
0.0
0
POINT
5
10F
8
Pakhar-A 115.13 Ha Boundary Pillars.csv
10
2605874.134
20
256149.827
30
0.0
0
POINT
5
110
8
Pakhar-A 115.13 Ha Boundary Pillars.csv
10
2605915.197
20
256178.355
30
0.0
0
POINT
5
111
8
Pakhar-A 115.13 Ha Boundary Pillars.csv
10
2605956.259
20
256206.883
30
0.0
0
POINT
5
112
8
Pakhar-A 115.13 Ha Boundary Pillars.csv
10
2605997.032
20
256235.825
30
0.0
0
POINT
5
113
8
Pakhar-A 115.13 Ha Boundary Pillars.csv
10
2606037.034
20
256265.822
30
0.0
0
POINT
5
114
8
Pakhar-A 115.13 Ha Boundary Pillars.csv
10
2606077.035
20
256295.820
30
0.0
0
POINT
5
115
8
Pakhar-A 115.13 Ha Boundary Pillars.csv
10
2606117.037
20
256325.817
30
0.0
0
POINT
5
116
8
Pakhar-A 115.13 Ha Boundary Pillars.csv
10
2606157.039
20
256355.814
30
0.0
0
POINT
5
117
8
Pakhar-A 115.13 Ha Boundary Pillars.csv
10
2606197.041
20
256385.812
30
0.0
0
POINT
5
118
8
Pakhar-A 115.13 Ha Boundary Pillars.csv
10
2606237.043
20
256415.809
30
0.0
0
POINT
5
119
8
Pakhar-A 115.13 Ha Boundary Pillars.csv
10
2606277.045
20
256445.807
30
0.0
0
POINT
5
11A
8
Pakhar-A 115.13 Ha Boundary Pillars.csv
10
2606286.423
20
256452.839
30
0.0
0
POINT
5
11B
8
Pakhar-A 115.13 Ha Boundary Pillars.csv
10
2606274.145
20
256450.344
30
0.0
0
POINT
5
11C
8
Pakhar-A 115.13 Ha Boundary Pillars.csv
10
2606274.069
20
256458.121
30
0.0
0
POINT
5
11D
8
Pakhar-A 115.13 Ha Boundary Pillars.csv
10
2606283.471
20
256457.159
30
0.0
0
POINT
5
11E
8
Pakhar-A 115.13 Ha Boundary Pillars.csv
10
2606286.809
20
256465.673
30
0.0
0
POINT
5
11F
8
Pakhar-A 115.13 Ha Boundary Pillars.csv
10
2606272.286
20
256470.196
30
0.0
0
POINT
5
120
8
Pakhar-A 115.13 Ha Boundary Pillars.csv
10
2606274.049
20
256478.295
30
0.0
0
POINT
5
121
8
Pakhar-A 115.13 Ha Boundary Pillars.csv
10
2606246.937
20
256485.136
30
0.0
0
POINT
5
122
8
Pakhar-A 115.13 Ha Boundary Pillars.csv
10
2606215.468
20
256478.146
30
0.0
0
POINT
5
123
8
Pakhar-A 115.13 Ha Boundary Pillars.csv
10
2606214.498
20
256488.874
30
0.0
0
POINT
5
124
8
Pakhar-A 115.13 Ha Boundary Pillars.csv
10
2606205.098
20
256489.738
30
0.0
0
POINT
5
125
8
Pakhar-A 115.13 Ha Boundary Pillars.csv
10
2606188.069
20
256483.232
30
0.0
0
POINT
5
126
8
Pakhar-A 115.13 Ha Boundary Pillars.csv
10
2606186.808
20
256486.079
30
0.0
0
POINT
5
127
8
Pakhar-A 115.13 Ha Boundary Pillars.csv
10
2606202.748
20
256493.266
30
0.0
0
POINT
5
128
8
Pakhar-A 115.13 Ha Boundary Pillars.csv
10
2606208.755
20
256494.952
30
0.0
0
POINT
5
129
8
Pakhar-A 115.13 Ha Boundary Pillars.csv
10
2606249.307
20
256494.952
30
0.0
0
POINT
5
12A
8
Pakhar-A 115.13 Ha Boundary Pillars.csv
10
2606270.058
20
256489.993
30
0.0
0
POINT
5
12B
8
Pakhar-A 115.13 Ha Boundary Pillars.csv
10
2606289.880
20
256493.434
30
0.0
0
POINT
5
12C
8
Pakhar-A 115.13 Ha Boundary Pillars.csv
10
2606293.201
20
256484.010
30
0.0
0
POINT
5
12D
8
Pakhar-A 115.13 Ha Boundary Pillars.csv
10
2606295.431
20
256483.075
30
0.0
0
POINT
5
12E
8
Pakhar-A 115.13 Ha Boundary Pillars.csv
10
2606344.929
20
256490.143
30
0.0
0
POINT
5
12F
8
Pakhar-A 115.13 Ha Boundary Pillars.csv
10
2606348.302
20
256490.705
30
0.0
0
POINT
5
130
8
Pakhar-A 115.13 Ha Boundary Pillars.csv
10
2606387.379
20
256521.898
30
0.0
0
POINT
5
131
8
Pakhar-A 115.13 Ha Boundary Pillars.csv
10
2606426.456
20
256553.091
30
0.0
0
POINT
5
132
8
Pakhar-A 115.13 Ha Boundary Pillars.csv
10
2606465.532
20
256584.284
30
0.0
0
POINT
5
133
8
Pakhar-A 115.13 Ha Boundary Pillars.csv
10
2606504.609
20
256615.478
30
0.0
0
POINT
5
134
8
Pakhar-A 115.13 Ha Boundary Pillars.csv
10
2606520.629
20
256628.266
30
0.0
0
POINT
5
135
8
Pakhar-A 115.13 Ha Boundary Pillars.csv
10
2606507.228
20
256649.182
30
0.0
0
POINT
5
136
8
Pakhar-A 115.13 Ha Boundary Pillars.csv
10
2606495.230
20
256644.835
30
0.0
0
POINT
5
137
8
Pakhar-A 115.13 Ha Boundary Pillars.csv
10
2606491.976
20
256655.013
30
0.0
0
POINT
5
138
8
Pakhar-A 115.13 Ha Boundary Pillars.csv
10
2606498.795
20
256669.856
30
0.0
0
POINT
5
139
8
Pakhar-A 115.13 Ha Boundary Pillars.csv
10
2606527.459
20
256658.423
30
0.0
0
POINT
5
13A
8
Pakhar-A 115.13 Ha Boundary Pillars.csv
10
2606538.850
20
256661.529
30
0.0
0
POINT
5
13B
8
Pakhar-A 115.13 Ha Boundary Pillars.csv
10
2606531.840
20
256680.371
30
0.0
0
POINT
5
13C
8
Pakhar-A 115.13 Ha Boundary Pillars.csv
10
2606519.402
20
256693.135
30
0.0
0
POINT
5
13D
8
Pakhar-A 115.13 Ha Boundary Pillars.csv
10
2606504.074
20
256720.209
30
0.0
0
POINT
5
13E
8
Pakhar-A 115.13 Ha Boundary Pillars.csv
10
2606514.312
20
256722.859
30
0.0
0
POINT
5
13F
8
Pakhar-A 115.13 Ha Boundary Pillars.csv
10
2606526.018
20
256701.506
30
0.0
0
POINT
5
140
8
Pakhar-A 115.13 Ha Boundary Pillars.csv
10
2606563.236
20
256660.088
30
0.0
0
POINT
5
141
8
Pakhar-A 115.13 Ha Boundary Pillars.csv
10
2606586.814
20
256684.980
30
0.0
0
POINT
5
142
8
Pakhar-A 115.13 Ha Boundary Pillars.csv
10
2606550.431
20
256719.277
30
0.0
0
POINT
5
143
8
Pakhar-A 115.13 Ha Boundary Pillars.csv
10
2606542.443
20
256727.702
30
0.0
0
POINT
5
144
8
Pakhar-A 115.13 Ha Boundary Pillars.csv
10
2606552.015
20
256748.229
30
0.0
0
POINT
5
145
8
Pakhar-A 115.13 Ha Boundary Pillars.csv
10
2606585.344
20
256713.151
30
0.0
0
POINT
5
146
8
Pakhar-A 115.13 Ha Boundary Pillars.csv
10
2606631.153
20
256693.114
30
0.0
0
POINT
5
147
8
Pakhar-A 115.13 Ha Boundary Pillars.csv
10
2606644.656
20
256685.213
30
0.0
0
POINT
5
148
8
Pakhar-A 115.13 Ha Boundary Pillars.csv
10
2606683.397
20
256686.149
30
0.0
0
POINT
5
149
8
Pakhar-A 115.13 Ha Boundary Pillars.csv
10
2606695.852
20
256691.898
30
0.0
0
POINT
5
14A
8
Pakhar-A 115.13 Ha Boundary Pillars.csv
10
2606704.855
20
256686.360
30
0.0
0
POINT
5
14B
8
Pakhar-A 115.13 Ha Boundary Pillars.csv
10
2606752.284
20
256702.188
30
0.0
0
POINT
5
14C
8
Pakhar-A 115.13 Ha Boundary Pillars.csv
10
2606799.713
20
256718.016
30
0.0
0
POINT
5
14D
8
Pakhar-A 115.13 Ha Boundary Pillars.csv
10
2606847.141
20
256733.844
30
0.0
0
POINT
5
14E
8
Pakhar-A 115.13 Ha Boundary Pillars.csv
10
2606894.570
20
256749.672
30
0.0
0
POINT
5
14F
8
Pakhar-A 115.13 Ha Boundary Pillars.csv
10
2606941.999
20
256765.500
30
0.0
0
POINT
5
150
8
Pakhar-A 115.13 Ha Boundary Pillars.csv
10
2606989.427
20
256781.328
30
0.0
0
POINT
5
151
8
Pakhar-A 115.13 Ha Boundary Pillars.csv
10
2607036.856
20
256797.156
30
0.0
0
POINT
5
152
8
Pakhar-A 115.13 Ha Boundary Pillars.csv
10
2607084.284
20
256812.984
30
0.0
0
POINT
5
153
8
Pakhar-A 115.13 Ha Boundary Pillars.csv
10
2607131.713
20
256828.812
30
0.0
0
POINT
5
154
8
Pakhar-A 115.13 Ha Boundary Pillars.csv
10
2607179.142
20
256844.640
30
0.0
0
POINT
5
155
8
Pakhar-A 115.13 Ha Boundary Pillars.csv
10
2607226.570
20
256860.468
30
0.0
0
POINT
5
156
8
Pakhar-A 115.13 Ha Boundary Pillars.csv
10
2607273.999
20
256876.296
30
0.0
0
POINT
5
157
8
Pakhar-A 115.13 Ha Boundary Pillars.csv
10
2607328.657
20
256894.536
30
0.0
0
POINT
5
158
8
Pakhar-A 115.13 Ha Boundary Pillars.csv
10
2607293.116
20
256929.705
30
0.0
0
POINT
5
159
8
Pakhar-A 115.13 Ha Boundary Pillars.csv
10
2607257.575
20
256964.874
30
0.0
0
POINT
5
15A
8
Pakhar-A 115.13 Ha Boundary Pillars.csv
10
2607222.034
20
257000.043
30
0.0
0
POINT
5
15B
8
Pakhar-A 115.13 Ha Boundary Pillars.csv
10
2607215.873
20
257006.140
30
0.0
0
POINT
5
15C
8
Pakhar-A 115.13 Ha Boundary Pillars.csv
10
2607169.322
20
257024.388
30
0.0
0
POINT
5
15D
8
Pakhar-A 115.13 Ha Boundary Pillars.csv
10
2607122.771
20
257042.637
30
0.0
0
POINT
5
15E
8
Pakhar-A 115.13 Ha Boundary Pillars.csv
10
2607076.220
20
257060.886
30
0.0
0
POINT
5
15F
8
Pakhar-A 115.13 Ha Boundary Pillars.csv
10
2607029.669
20
257079.134
30
0.0
0
POINT
5
160
8
Pakhar-A 115.13 Ha Boundary Pillars.csv
10
2606983.118
20
257097.383
30
0.0
0
POINT
5
161
8
Pakhar-A 115.13 Ha Boundary Pillars.csv
10
2606936.567
20
257115.631
30
0.0
0
POINT
5
162
8
Pakhar-A 115.13 Ha Boundary Pillars.csv
10
2606890.016
20
257133.880
30
0.0
0
POINT
5
163
8
Pakhar-A 115.13 Ha Boundary Pillars.csv
10
2606843.465
20
257152.128
30
0.0
0
POINT
5
164
8
Pakhar-A 115.13 Ha Boundary Pillars.csv
10
2606796.914
20
257170.377
30
0.0
0
POINT
5
165
8
Pakhar-A 115.13 Ha Boundary Pillars.csv
10
2606750.363
20
257188.626
30
0.0
0
POINT
5
166
8
Pakhar-A 115.13 Ha Boundary Pillars.csv
10
2606718.448
20
257201.137
30
0.0
0
POINT
5
167
8
Pakhar-A 115.13 Ha Boundary Pillars.csv
10
2606687.174
20
257162.125
30
0.0
0
POINT
5
168
8
Pakhar-A 115.13 Ha Boundary Pillars.csv
10
2606655.899
20
257123.114
30
0.0
0
POINT
5
169
8
Pakhar-A 115.13 Ha Boundary Pillars.csv
10
2606624.228
20
257084.423
30
0.0
0
POINT
5
16A
8
Pakhar-A 115.13 Ha Boundary Pillars.csv
10
2606592.216
20
257046.014
30
0.0
0
POINT
5
16B
8
Pakhar-A 115.13 Ha Boundary Pillars.csv
10
2606560.204
20
257007.606
30
0.0
0
POINT
5
16C
8
Pakhar-A 115.13 Ha Boundary Pillars.csv
10
2606547.337
20
256992.168
30
0.0
0
POINT
5
16D
8
Pakhar-A 115.13 Ha Boundary Pillars.csv
10
2606504.578
20
256966.251
30
0.0
0
POINT
5
16E
8
Pakhar-A 115.13 Ha Boundary Pillars.csv
10
2606461.819
20
256940.334
30
0.0
0
POINT
5
16F
8
Pakhar-A 115.13 Ha Boundary Pillars.csv
10
2606419.061
20
256914.417
30
0.0
0
POINT
5
170
8
Pakhar-A 115.13 Ha Boundary Pillars.csv
10
2606375.282
20
256887.883
30
0.0
0
POINT
5
171
8
Pakhar-A 115.13 Ha Boundary Pillars.csv
10
2606325.847
20
256880.387
30
0.0
0
POINT
5
172
8
Pakhar-A 115.13 Ha Boundary Pillars.csv
10
2606281.657
20
256873.688
30
0.0
0
POINT
5
173
8
Pakhar-A 115.13 Ha Boundary Pillars.csv
10
2606251.198
20
256916.274
30
0.0
0
POINT
5
174
8
Pakhar-A 115.13 Ha Boundary Pillars.csv
10
2606212.897
20
256884.133
30
0.0
0
POINT
5
175
8
Pakhar-A 115.13 Ha Boundary Pillars.csv
10
2606174.596
20
256851.992
30
0.0
0
POINT
5
176
8
Pakhar-A 115.13 Ha Boundary Pillars.csv
10
2606136.363
20
256819.770
30
0.0
0
POINT
5
177
8
Pakhar-A 115.13 Ha Boundary Pillars.csv
10
2606098.176
20
256787.494
30
0.0
0
POINT
5
178
8
Pakhar-A 115.13 Ha Boundary Pillars.csv
10
2606068.425
20
256762.349
30
0.0
0
POINT
5
179
8
Pakhar-A 115.13 Ha Boundary Pillars.csv
10
2606048.387
20
256785.811
30
0.0
0
POINT
5
17A
8
Pakhar-A 115.13 Ha Boundary Pillars.csv
10
2606009.449
20
256754.446
30
0.0
0
POINT
5
17B
8
Pakhar-A 115.13 Ha Boundary Pillars.csv
10
2605970.502
20
256723.090
30
0.0
0
POINT
5
17C
8
Pakhar-A 115.13 Ha Boundary Pillars.csv
10
2605948.689
20
256702.409
30
0.0
0
POINT
5
17D
8
Pakhar-A 115.13 Ha Boundary Pillars.csv
10
2605962.084
20
256650.821
30
0.0
0
POINT
5
17E
8
Pakhar-A 115.13 Ha Boundary Pillars.csv
10
2605936.236
20
256640.292
30
0.0
0
POINT
5
17F
8
Pakhar-A 115.13 Ha Boundary Pillars.csv
10
2605937.372
20
256631.415
30
0.0
0
POINT
5
180
8
Pakhar-A 115.13 Ha Boundary Pillars.csv
10
2605914.468
20
256622.283
30
0.0
0
POINT
5
181
8
Pakhar-A 115.13 Ha Boundary Pillars.csv
10
2605929.188
20
256600.360
30
0.0
0
POINT
5
182
8
Pakhar-A 115.13 Ha Boundary Pillars.csv
10
2605945.132
20
256600.360
30
0.0
0
POINT
5
183
8
Pakhar-A 115.13 Ha Boundary Pillars.csv
10
2605959.701
20
256552.211
30
0.0
0
POINT
5
184
8
Pakhar-A 115.13 Ha Boundary Pillars.csv
10
2605978.078
20
256505.711
30
0.0
0
POINT
5
185
8
Pakhar-A 115.13 Ha Boundary Pillars.csv
10
2605988.468
20
256479.312
30
0.0
0
POINT
5
186
8
Pakhar-A 115.13 Ha Boundary Pillars.csv
10
2605964.741
20
256457.807
30
0.0
0
POINT
5
187
8
Pakhar-A 115.13 Ha Boundary Pillars.csv
10
2605958.892
20
256464.673
30
0.0
0
POINT
5
188
8
Pakhar-A 115.13 Ha Boundary Pillars.csv
10
2605956.128
20
256478.701
30
0.0
0
POINT
5
189
8
Pakhar-A 115.13 Ha Boundary Pillars.csv
10
2605929.564
20
256521.061
30
0.0
0
POINT
5
18A
8
Pakhar-A 115.13 Ha Boundary Pillars.csv
10
2605922.597
20
256528.240
30
0.0
0
POINT
5
18B
8
Pakhar-A 115.13 Ha Boundary Pillars.csv
10
2605917.660
20
256525.496
30
0.0
0
POINT
5
18C
8
Pakhar-A 115.13 Ha Boundary Pillars.csv
10
2605901.062
20
256560.405
30
0.0
0
POINT
5
18D
8
Pakhar-A 115.13 Ha Boundary Pillars.csv
10
2605901.159
20
256610.405
30
0.0
0
POINT
5
18E
8
Pakhar-A 115.13 Ha Boundary Pillars.csv
10
2605900.667
20
256622.199
30
0.0
0
POINT
5
18F
8
Pakhar-A 115.13 Ha Boundary Pillars.csv
10
2605889.546
20
256641.703
30
0.0
0
POINT
5
190
8
Pakhar-A 115.13 Ha Boundary Pillars.csv
10
2605877.096
20
256672.196
30
0.0
0
POINT
5
191
8
Pakhar-A 115.13 Ha Boundary Pillars.csv
10
2605864.794
20
256669.501
30
0.0
0
POINT
5
192
8
Pakhar-A 115.13 Ha Boundary Pillars.csv
10
2605878.327
20
256621.367
30
0.0
0
POINT
5
193
8
Pakhar-A 115.13 Ha Boundary Pillars.csv
10
2605885.635
20
256571.904
30
0.0
0
POINT
5
194
8
Pakhar-A 115.13 Ha Boundary Pillars.csv
10
2605887.785
20
256555.007
30
0.0
0
POINT
5
195
8
Pakhar-A 115.13 Ha Boundary Pillars.csv
10
2605894.262
20
256543.666
30
0.0
0
POINT
5
196
8
Pakhar-A 115.13 Ha Boundary Pillars.csv
10
2605893.271
20
256541.425
30
0.0
0
POINT
5
197
8
Pakhar-A 115.13 Ha Boundary Pillars.csv
10
2605916.595
20
256497.199
30
0.0
0
POINT
5
198
8
Pakhar-A 115.13 Ha Boundary Pillars.csv
10
2605919.863
20
256490.567
30
0.0
0
POINT
5
199
8
Pakhar-A 115.13 Ha Boundary Pillars.csv
10
2605919.446
20
256479.950
30
0.0
0
POINT
5
19A
8
Pakhar-A 115.13 Ha Boundary Pillars.csv
10
2605910.487
20
256471.707
30
0.0
0
POINT
5
19B
8
Pakhar-A 115.13 Ha Boundary Pillars.csv
10
2605889.608
20
256517.139
30
0.0
0
POINT
5
19C
8
Pakhar-A 115.13 Ha Boundary Pillars.csv
10
2605881.604
20
256529.563
30
0.0
0
POINT
5
19D
8
Pakhar-A 115.13 Ha Boundary Pillars.csv
10
2605868.729
20
256523.734
30
0.0
0
POINT
5
19E
8
Pakhar-A 115.13 Ha Boundary Pillars.csv
10
2605860.559
20
256527.500
30
0.0
0
POINT
5
19F
8
Pakhar-A 115.13 Ha Boundary Pillars.csv
10
2605855.432
20
256536.165
30
0.0
0
POINT
5
1A0
8
Pakhar-A 115.13 Ha Boundary Pillars.csv
10
2605866.947
20
256544.779
30
0.0
0
POINT
5
1A1
8
Pakhar-A 115.13 Ha Boundary Pillars.csv
10
2605878.140
20
256559.440
30
0.0
0
POINT
5
1A2
8
Pakhar-A 115.13 Ha Boundary Pillars.csv
10
2605872.717
20
256578.747
30
0.0
0
POINT
5
1A3
8
Pakhar-A 115.13 Ha Boundary Pillars.csv
10
2605858.627
20
256586.063
30
0.0
0
POINT
5
1A4
8
Pakhar-A 115.13 Ha Boundary Pillars.csv
10
2605845.544
20
256617.017
30
0.0
0
POINT
5
1A5
8
Pakhar-A 115.13 Ha Boundary Pillars.csv
10
2605846.114
20
256635.074
30
0.0
0
POINT
5
1A6
8
Pakhar-A 115.13 Ha Boundary Pillars.csv
10
2605835.605
20
256660.604
30
0.0
0
POINT
5
1A7
8
Pakhar-A 115.13 Ha Boundary Pillars.csv
10
2605827.486
20
256668.418
30
0.0
0
POINT
5
1A8
8
Pakhar-A 115.13 Ha Boundary Pillars.csv
10
2605822.563
20
256683.359
30
0.0
0
POINT
5
1A9
8
Pakhar-A 115.13 Ha Boundary Pillars.csv
10
2605772.569
20
256684.091
30
0.0
0
POINT
5
1AA
8
Pakhar-A 115.13 Ha Boundary Pillars.csv
10
2605722.717
20
256687.944
30
0.0
0
POINT
5
1AB
8
Pakhar-A 115.13 Ha Boundary Pillars.csv
10
2605701.003
20
256690.160
30
0.0
0
POINT
5
1AC
8
Pakhar-A 115.13 Ha Boundary Pillars.csv
10
2605661.482
20
256720.789
30
0.0
0
POINT
5
1AD
8
Pakhar-A 115.13 Ha Boundary Pillars.csv
10
2605625.585
20
256746.516
30
0.0
0
POINT
5
1AE
8
Pakhar-A 115.13 Ha Boundary Pillars.csv
10
2605586.322
20
256715.557
30
0.0
0
POINT
5
1AF
8
Pakhar-A 115.13 Ha Boundary Pillars.csv
10
2605546.884
20
256684.822
30
0.0
0
POINT
5
1B0
8
Pakhar-A 115.13 Ha Boundary Pillars.csv
10
2605507.184
20
256654.426
30
0.0
0
POINT
5
1B1
8
Pakhar-A 115.13 Ha Boundary Pillars.csv
10
2605469.008
20
256622.137
30
0.0
0
POINT
5
1B2
8
Pakhar-A 115.13 Ha Boundary Pillars.csv
10
2605433.127
20
256588.290
30
0.0
0
POINT
5
1B3
8
Pakhar-A 115.13 Ha Boundary Pillars.csv
10
2605414.702
20
256571.441
30
0.0
0
POINT
5
1B4
8
Pakhar-A 115.13 Ha Boundary Pillars.csv
10
2605372.432
20
256544.734
30
0.0
0
POINT
5
1B5
8
Pakhar-A 115.13 Ha Boundary Pillars.csv
10
2605338.218
20
256522.530
30
0.0
0
POINT
5
1B6
8
Pakhar-A 115.13 Ha Boundary Pillars.csv
10
2605315.762
20
256477.856
30
0.0
0
POINT
5
1B7
8
Pakhar-A 115.13 Ha Boundary Pillars.csv
10
2605293.582
20
256433.045
30
0.0
0
POINT
5
1B8
8
Pakhar-A 115.13 Ha Boundary Pillars.csv
10
2605281.990
20
256409.485
30
0.0
0
POINT
5
1B9
8
Pakhar-A 115.13 Ha Boundary Pillars.csv
10
2605250.104
20
256370.971
30
0.0
0
POINT
5
1BA
8
Pakhar-A 115.13 Ha Boundary Pillars.csv
10
2605218.128
20
256332.532
30
0.0
0
POINT
5
1BB
8
Pakhar-A 115.13 Ha Boundary Pillars.csv
10
2605212.922
20
256326.562
30
0.0
0
ENDSEC
0
EOF
