0
SECTION
2
ENTITIES
0
LWPOLYLINE
8
PARCEL
90
4
70
1
10
412000.0000
20
2591300.0000
10
412060.0000
20
2591300.0000
10
412060.0000
20
2591345.0000
10
412000.0000
20
2591345.0000
0
LWPOLYLINE
8
PARCEL
90
9
70
1
10
412070.0000
20
2591300.0000
10
412095.0000
20
2591305.0000
10
412120.0000
20
2591300.0000
10
412130.0000
20
2591320.0000
10
412112.0000
20
2591318.0000
10
412118.0000
20
2591340.0000
10
412095.0000
20
2591330.0000
10
412072.0000
20
2591342.0000
10
412066.0000
20
2591320.0000
0
LWPOLYLINE
8
BOUNDARY
90
180
70
1
10
412100.0000
20
2591420.0000
10
412099.9756
20
2591420.8725
10
412099.9026
20
2591421.7439
10
412099.7809
20
2591422.6132
10
412099.6107
20
2591423.4793
10
412099.3923
20
2591424.3412
10
412099.1259
20
2591425.1978
10
412098.8118
20
2591426.0480
10
412098.4505
20
2591426.8909
10
412098.0423
20
2591427.7254
10
412097.5877
20
2591428.5505
10
412097.0874
20
2591429.3652
10
412096.5418
20
2591430.1684
10
412095.9518
20
2591430.9593
10
412095.3179
20
2591431.7368
10
412094.6410
20
2591432.5000
10
412093.9219
20
2591433.2480
10
412093.1615
20
2591433.9798
10
412092.3607
20
2591434.6946
10
412091.5204
20
2591435.3915
10
412090.6418
20
2591436.0697
10
412089.7258
20
2591436.7283
10
412088.7736
20
2591437.3665
10
412087.7863
20
2591437.9835
10
412086.7652
20
2591438.5786
10
412085.7115
20
2591439.1511
10
412084.6265
20
2591439.7003
10
412083.5114
20
2591440.2254
10
412082.3677
20
2591440.7259
10
412081.1968
20
2591441.2012
10
412080.0000
20
2591441.6506
10
412078.7789
20
2591442.0737
10
412077.5348
20
2591442.4699
10
412076.2695
20
2591442.8386
10
412074.9843
20
2591443.1796
10
412073.6808
20
2591443.4923
10
412072.3607
20
2591443.7764
10
412071.0255
20
2591444.0315
10
412069.6769
20
2591444.2574
10
412068.3165
20
2591444.4537
10
412066.9459
20
2591444.6202
10
412065.5669
20
2591444.7567
10
412064.1811
20
2591444.8630
10
412062.7903
20
2591444.9391
10
412061.3960
20
2591444.9848
10
412060.0000
20
2591445.0000
10
412058.6040
20
2591444.9848
10
412057.2097
20
2591444.9391
10
412055.8189
20
2591444.8630
10
412054.4331
20
2591444.7567
10
412053.0541
20
2591444.6202
10
412051.6835
20
2591444.4537
10
412050.3231
20
2591444.2574
10
412048.9745
20
2591444.0315
10
412047.6393
20
2591443.7764
10
412046.3192
20
2591443.4923
10
412045.0157
20
2591443.1796
10
412043.7305
20
2591442.8386
10
412042.4652
20
2591442.4699
10
412041.2211
20
2591442.0737
10
412040.0000
20
2591441.6506
10
412038.8032
20
2591441.2012
10
412037.6323
20
2591440.7259
10
412036.4886
20
2591440.2254
10
412035.3735
20
2591439.7003
10
412034.2885
20
2591439.1511
10
412033.2348
20
2591438.5786
10
412032.2137
20
2591437.9835
10
412031.2264
20
2591437.3665
10
412030.2742
20
2591436.7283
10
412029.3582
20
2591436.0697
10
412028.4796
20
2591435.3915
10
412027.6393
20
2591434.6946
10
412026.8385
20
2591433.9798
10
412026.0781
20
2591433.2480
10
412025.3590
20
2591432.5000
10
412024.6821
20
2591431.7368
10
412024.0482
20
2591430.9593
10
412023.4582
20
2591430.1684
10
412022.9126
20
2591429.3652
10
412022.4123
20
2591428.5505
10
412021.9577
20
2591427.7254
10
412021.5495
20
2591426.8909
10
412021.1882
20
2591426.0480
10
412020.8741
20
2591425.1978
10
412020.6077
20
2591424.3412
10
412020.3893
20
2591423.4793
10
412020.2191
20
2591422.6132
10
412020.0974
20
2591421.7439
10
412020.0244
20
2591420.8725
10
412020.0000
20
2591420.0000
10
412020.0244
20
2591419.1275
10
412020.0974
20
2591418.2561
10
412020.2191
20
2591417.3868
10
412020.3893
20
2591416.5207
10
412020.6077
20
2591415.6588
10
412020.8741
20
2591414.8022
10
412021.1882
20
2591413.9520
10
412021.5495
20
2591413.1091
10
412021.9577
20
2591412.2746
10
412022.4123
20
2591411.4495
10
412022.9126
20
2591410.6348
10
412023.4582
20
2591409.8316
10
412024.0482
20
2591409.0407
10
412024.6821
20
2591408.2632
10
412025.3590
20
2591407.5000
10
412026.0781
20
2591406.7520
10
412026.8385
20
2591406.0202
10
412027.6393
20
2591405.3054
10
412028.4796
20
2591404.6085
10
412029.3582
20
2591403.9303
10
412030.2742
20
2591403.2717
10
412031.2264
20
2591402.6335
10
412032.2137
20
2591402.0165
10
412033.2348
20
2591401.4214
10
412034.2885
20
2591400.8489
10
412035.3735
20
2591400.2997
10
412036.4886
20
2591399.7746
10
412037.6323
20
2591399.2741
10
412038.8032
20
2591398.7988
10
412040.0000
20
2591398.3494
10
412041.2211
20
2591397.9263
10
412042.4652
20
2591397.5301
10
412043.7305
20
2591397.1614
10
412045.0157
20
2591396.8204
10
412046.3192
20
2591396.5077
10
412047.6393
20
2591396.2236
10
412048.9745
20
2591395.9685
10
412050.3231
20
2591395.7426
10
412051.6835
20
2591395.5463
10
412053.0541
20
2591395.3798
10
412054.4331
20
2591395.2433
10
412055.8189
20
2591395.1370
10
412057.2097
20
2591395.0609
10
412058.6040
20
2591395.0152
10
412060.0000
20
2591395.0000
10
412061.3960
20
2591395.0152
10
412062.7903
20
2591395.0609
10
412064.1811
20
2591395.1370
10
412065.5669
20
2591395.2433
10
412066.9459
20
2591395.3798
10
412068.3165
20
2591395.5463
10
412069.6769
20
2591395.7426
10
412071.0255
20
2591395.9685
10
412072.3607
20
2591396.2236
10
412073.6808
20
2591396.5077
10
412074.9843
20
2591396.8204
10
412076.2695
20
2591397.1614
10
412077.5348
20
2591397.5301
10
412078.7789
20
2591397.9263
10
412080.0000
20
2591398.3494
10
412081.1968
20
2591398.7988
10
412082.3677
20
2591399.2741
10
412083.5114
20
2591399.7746
10
412084.6265
20
2591400.2997
10
412085.7115
20
2591400.8489
10
412086.7652
20
2591401.4214
10
412087.7863
20
2591402.0165
10
412088.7736
20
2591402.6335
10
412089.7258
20
2591403.2717
10
412090.6418
20
2591403.9303
10
412091.5204
20
2591404.6085
10
412092.3607
20
2591405.3054
10
412093.1615
20
2591406.0202
10
412093.9219
20
2591406.7520
10
412094.6410
20
2591407.5000
10
412095.3179
20
2591408.2632
10
412095.9518
20
2591409.0407
10
412096.5418
20
2591409.8316
10
412097.0874
20
2591410.6348
10
412097.5877
20
2591411.4495
10
412098.0423
20
2591412.2746
10
412098.4505
20
2591413.1091
10
412098.8118
20
2591413.9520
10
412099.1259
20
2591414.8022
10
412099.3923
20
2591415.6588
10
412099.6107
20
2591416.5207
10
412099.7809
20
2591417.3868
10
412099.9026
20
2591418.2561
10
412099.9756
20
2591419.1275
0
LWPOLYLINE
8
ROAD
90
3
70
0
10
412000.0000
20
2591350.0000
10
412060.0000
20
2591350.0000
10
412125.0000
20
2591352.0000
0
LWPOLYLINE
8
ROAD
90
60
70
0
10
412005.0000
20
2591360.0000
10
412007.0000
20
2591360.9816
10
412009.0000
20
2591361.8551
10
412011.0000
20
2591362.5244
10
412013.0000
20
2591362.9158
10
412015.0000
20
2591362.9862
10
412017.0000
20
2591362.7279
10
412019.0000
20
2591362.1693
10
412021.0000
20
2591361.3718
10
412023.0000
20
2591360.4234
10
412025.0000
20
2591359.4283
10
412027.0000
20
2591358.4962
10
412029.0000
20
2591357.7296
10
412031.0000
20
2591357.2130
10
412033.0000
20
2591357.0031
10
412035.0000
20
2591357.1232
10
412037.0000
20
2591357.5600
10
412039.0000
20
2591358.2654
10
412041.0000
20
2591359.1618
10
412043.0000
20
2591360.1504
10
412045.0000
20
2591361.1225
10
412047.0000
20
2591361.9710
10
412049.0000
20
2591362.6025
10
412051.0000
20
2591362.9475
10
412053.0000
20
2591362.9681
10
412055.0000
20
2591362.6619
10
412057.0000
20
2591362.0627
10
412059.0000
20
2591361.2364
10
412061.0000
20
2591360.2740
10
412063.0000
20
2591359.2814
10
412065.0000
20
2591358.3679
10
412067.0000
20
2591357.6342
10
412069.0000
20
2591357.1608
10
412071.0000
20
2591357.0000
10
412073.0000
20
2591357.1695
10
412075.0000
20
2591357.6506
10
412077.0000
20
2591358.3903
10
412079.0000
20
2591359.3072
10
412081.0000
20
2591360.3004
10
412083.0000
20
2591361.2605
10
412085.0000
20
2591362.0819
10
412087.0000
20
2591362.6740
10
412089.0000
20
2591362.9718
10
412091.0000
20
2591362.9425
10
412093.0000
20
2591362.5892
10
412095.0000
20
2591361.9509
10
412097.0000
20
2591361.0978
10
412099.0000
20
2591360.1239
10
412101.0000
20
2591359.1363
10
412103.0000
20
2591358.2438
10
412105.0000
20
2591357.5447
10
412107.0000
20
2591357.1158
10
412109.0000
20
2591357.0045
10
412111.0000
20
2591357.2229
10
412113.0000
20
2591357.7470
10
412115.0000
20
2591358.5192
10
412117.0000
20
2591359.4544
10
412119.0000
20
2591360.4496
10
412121.0000
20
2591361.3954
10
412123.0000
20
2591362.1875
0
LWPOLYLINE
8
CONTOUR
90
36
70
1
38
410.000
10
412090.0000
20
2591500.0000
10
412089.5442
20
2591505.2094
10
412088.1908
20
2591510.2606
10
412085.9808
20
2591515.0000
10
412082.9813
20
2591519.2836
10
412079.2836
20
2591522.9813
10
412075.0000
20
2591525.9808
10
412070.2606
20
2591528.1908
10
412065.2094
20
2591529.5442
10
412060.0000
20
2591530.0000
10
412054.7906
20
2591529.5442
10
412049.7394
20
2591528.1908
10
412045.0000
20
2591525.9808
10
412040.7164
20
2591522.9813
10
412037.0187
20
2591519.2836
10
412034.0192
20
2591515.0000
10
412031.8092
20
2591510.2606
10
412030.4558
20
2591505.2094
10
412030.0000
20
2591500.0000
10
412030.4558
20
2591494.7906
10
412031.8092
20
2591489.7394
10
412034.0192
20
2591485.0000
10
412037.0187
20
2591480.7164
10
412040.7164
20
2591477.0187
10
412045.0000
20
2591474.0192
10
412049.7394
20
2591471.8092
10
412054.7906
20
2591470.4558
10
412060.0000
20
2591470.0000
10
412065.2094
20
2591470.4558
10
412070.2606
20
2591471.8092
10
412075.0000
20
2591474.0192
10
412079.2836
20
2591477.0187
10
412082.9813
20
2591480.7164
10
412085.9808
20
2591485.0000
10
412088.1908
20
2591489.7394
10
412089.5442
20
2591494.7906
0
LWPOLYLINE
8
CONTOUR
90
36
70
1
38
415.000
10
412082.0000
20
2591500.0000
10
412081.6658
20
2591503.8203
10
412080.6732
20
2591507.5244
10
412079.0526
20
2591511.0000
10
412076.8530
20
2591514.1413
10
412074.1413
20
2591516.8530
10
412071.0000
20
2591519.0526
10
412067.5244
20
2591520.6732
10
412063.8203
20
2591521.6658
10
412060.0000
20
2591522.0000
10
412056.1797
20
2591521.6658
10
412052.4756
20
2591520.6732
10
412049.0000
20
2591519.0526
10
412045.8587
20
2591516.8530
10
412043.1470
20
2591514.1413
10
412040.9474
20
2591511.0000
10
412039.3268
20
2591507.5244
10
412038.3342
20
2591503.8203
10
412038.0000
20
2591500.0000
10
412038.3342
20
2591496.1797
10
412039.3268
20
2591492.4756
10
412040.9474
20
2591489.0000
10
412043.1470
20
2591485.8587
10
412045.8587
20
2591483.1470
10
412049.0000
20
2591480.9474
10
412052.4756
20
2591479.3268
10
412056.1797
20
2591478.3342
10
412060.0000
20
2591478.0000
10
412063.8203
20
2591478.3342
10
412067.5244
20
2591479.3268
10
412071.0000
20
2591480.9474
10
412074.1413
20
2591483.1470
10
412076.8530
20
2591485.8587
10
412079.0526
20
2591489.0000
10
412080.6732
20
2591492.4756
10
412081.6658
20
2591496.1797
0
LWPOLYLINE
8
CONTOUR
90
36
70
1
38
420.000
10
412074.0000
20
2591500.0000
10
412073.7873
20
2591502.4311
10
412073.1557
20
2591504.7883
10
412072.1244
20
2591507.0000
10
412070.7246
20
2591508.9990
10
412068.9990
20
2591510.7246
10
412067.0000
20
2591512.1244
10
412064.7883
20
2591513.1557
10
412062.4311
20
2591513.7873
10
412060.0000
20
2591514.0000
10
412057.5689
20
2591513.7873
10
412055.2117
20
2591513.1557
10
412053.0000
20
2591512.1244
10
412051.0010
20
2591510.7246
10
412049.2754
20
2591508.9990
10
412047.8756
20
2591507.0000
10
412046.8443
20
2591504.7883
10
412046.2127
20
2591502.4311
10
412046.0000
20
2591500.0000
10
412046.2127
20
2591497.5689
10
412046.8443
20
2591495.2117
10
412047.8756
20
2591493.0000
10
412049.2754
20
2591491.0010
10
412051.0010
20
2591489.2754
10
412053.0000
20
2591487.8756
10
412055.2117
20
2591486.8443
10
412057.5689
20
2591486.2127
10
412060.0000
20
2591486.0000
10
412062.4311
20
2591486.2127
10
412064.7883
20
2591486.8443
10
412067.0000
20
2591487.8756
10
412068.9990
20
2591489.2754
10
412070.7246
20
2591491.0010
10
412072.1244
20
2591493.0000
10
412073.1557
20
2591495.2117
10
412073.7873
20
2591497.5689
0
POINT
8
CONTROL
10
412010.0000
20
2591310.0000
30
412.5000
0
POINT
8
CONTROL
10
412055.0000
20
2591340.0000
30
414.2000
0
POINT
8
CONTROL
10
412120.0000
20
2591315.0000
30
409.8000
0
POINT
8
CONTROL
10
412030.0000
20
2591510.0000
30
420.1000
0
TEXT
8
LABELS
10
412020.0000
20
2591320.0000
40
2.5
1
12/A
0
TEXT
8
LABELS
10
412090.0000
20
2591320.0000
40
2.5
1
12/B
0
ENDSEC
0
EOF
